<svg width="1562" height="1928" viewBox="0 0 1562 1928" fill="none" xmlns="http://www.w3.org/2000/svg">
<path d="M1279.58 1425.77C1253.44 1346.95 1223.5 1236.09 1098.59 1109.04L873.305 1236.09C923.808 1313.09 1007.4 1467.94 1094.5 1527.5C1181.6 1587.06 1328.03 1559.29 1401.5 1527.5C1351.08 1527.84 1305.71 1504.59 1279.58 1425.77Z" fill="#295DA9"/>
<path d="M264.275 1283.7C300.958 1297.46 417.122 1211.1 470.619 1166.2L1034.7 1124.37C1087.43 1183.98 1281.66 1250.27 1341.85 1252.18C1350.45 1231.16 1377.38 1190.85 1416.36 1197.73C1465.08 1206.32 1467.95 1289.44 1396.3 1349.62C1338.98 1397.77 1179.45 1386.88 1106.84 1375.41C1118.5 1386 1120.81 1450.66 1091 1563C1085.36 1584.25 1077.73 1606.12 1068.76 1628C1091.24 1623.67 1127.59 1634.5 1106.84 1681.5C1091 1717.39 1055.43 1703.66 1044.4 1681.5C993.254 1784.22 924.423 1875.16 911.964 1885.54C894.769 1899.87 909.098 1897 828.853 1899.87C748.609 1902.74 760.072 1891.27 751.474 1856.88C744.596 1829.37 777.267 1816.76 794.463 1813.89C795.418 1802.43 795.036 1774.34 785.865 1753.71C774.402 1727.92 740.011 1733.65 734.279 1747.98C728.547 1762.31 731.413 1856.88 728.547 1879.81C725.681 1902.74 719.95 1905.6 645.437 1908.47C570.923 1911.33 570.923 1897 562.326 1871.21C555.448 1850.58 588.119 1832.04 605.314 1825.36C533.667 1772.82 408.427 1720.07 381.5 1563C362.827 1454.07 401.036 1405.07 412.5 1374.5C370.467 1384.05 259.689 1404.64 241.348 1406.94C218.421 1409.8 146.773 1283.7 172.566 1243.58C198.359 1203.46 218.421 1266.51 264.275 1283.7Z" fill="#84CDEE"/>
<path d="M470.619 1166.2L469.214 1147.25L463.1 1147.71L458.404 1151.65L470.619 1166.2ZM264.275 1283.7L270.946 1265.91L264.275 1283.7ZM172.566 1243.58L188.549 1253.86H188.549L172.566 1243.58ZM241.348 1406.94L238.991 1388.08H238.991L241.348 1406.94ZM381.5 1563L400.227 1559.79V1559.79L381.5 1563ZM605.314 1825.36L612.201 1843.06L644.475 1830.51L616.55 1810.03L605.314 1825.36ZM562.326 1871.21L580.351 1865.2L580.351 1865.2L562.326 1871.21ZM645.437 1908.47L646.167 1927.45L645.437 1908.47ZM728.547 1879.81L709.694 1877.45L728.547 1879.81ZM734.279 1747.98L716.638 1740.92L734.279 1747.98ZM785.865 1753.71L803.228 1745.99L785.865 1753.71ZM794.463 1813.89L797.586 1832.63L812.169 1830.2L813.397 1815.47L794.463 1813.89ZM751.474 1856.88L733.042 1861.49L751.474 1856.88ZM828.853 1899.87L829.531 1918.86H829.532L828.853 1899.87ZM911.964 1885.54L899.801 1870.94L911.964 1885.54ZM1091 1563L1072.64 1558.13L1091 1563ZM1396.3 1349.62L1384.08 1335.07L1396.3 1349.62ZM1416.36 1197.73L1419.66 1179.02L1416.36 1197.73ZM1341.85 1252.18L1341.24 1271.17L1354.44 1271.59L1359.43 1259.37L1341.85 1252.18ZM1034.7 1124.37L1048.93 1111.78L1042.69 1104.73L1033.29 1105.42L1034.7 1124.37ZM1081.49 1341.5C1072.11 1336.81 1060.69 1340.62 1056 1350.01C1051.31 1359.39 1055.12 1370.81 1064.51 1375.5L1081.49 1341.5ZM1068.76 1628L1051.18 1620.8H1051.18L1068.76 1628ZM1106.84 1681.5L1089.46 1673.83L1106.84 1681.5ZM1044.4 1681.5L1027.39 1673.03L1044.4 1681.5ZM458.404 1151.65C432.077 1173.74 390.366 1206 350.99 1230.89C331.241 1243.37 312.694 1253.61 297.314 1259.86C289.621 1262.99 283.282 1264.88 278.354 1265.7C275.926 1266.11 274.096 1266.21 272.789 1266.16C272.15 1266.13 271.689 1266.07 271.38 1266.02C271.074 1265.96 270.942 1265.91 270.946 1265.91L257.603 1301.49C266.58 1304.86 276.177 1304.59 284.604 1303.19C293.259 1301.74 302.432 1298.8 311.623 1295.06C330.013 1287.59 350.729 1276.01 371.294 1263.01C412.545 1236.93 455.664 1203.56 482.833 1180.76L458.404 1151.65ZM270.946 1265.91C262.554 1262.77 254.711 1257.27 246.796 1250.29C242.864 1246.82 239.101 1243.16 235.274 1239.37C231.586 1235.72 227.594 1231.7 223.785 1228.19C219.976 1224.67 215.642 1220.98 210.94 1218.02C206.258 1215.08 200.173 1212.2 192.963 1211.58C176.22 1210.13 164.472 1221.04 156.584 1233.31L188.549 1253.86C193.557 1246.07 193.989 1249.81 189.695 1249.44C188.709 1249.35 188.916 1249.06 190.715 1250.2C192.495 1251.31 194.833 1253.18 198.01 1256.11C201.187 1259.04 204.494 1262.37 208.541 1266.38C212.45 1270.25 216.86 1274.55 221.659 1278.79C231.209 1287.21 243.068 1296.04 257.603 1301.49L270.946 1265.91ZM156.584 1233.31C145.929 1249.88 146.926 1271.72 150.57 1290.12C154.431 1309.63 162.366 1330.65 171.593 1349.67C180.834 1368.72 191.832 1386.71 202.405 1400.06C207.641 1406.67 213.251 1412.76 218.95 1417.28C223.583 1420.95 232.635 1427.17 243.704 1425.79L238.991 1388.08C244.328 1387.42 246.126 1390.33 242.554 1387.5C240.046 1385.51 236.499 1381.9 232.197 1376.47C223.694 1365.73 214.094 1350.22 205.781 1333.09C197.455 1315.92 190.881 1298.08 187.846 1282.75C184.594 1266.32 186.307 1257.34 188.549 1253.86L156.584 1233.31ZM243.704 1425.79C262.935 1423.39 374.399 1402.64 416.711 1393.03L408.289 1355.97C366.536 1365.46 256.444 1385.9 238.991 1388.08L243.704 1425.79ZM394.71 1367.83C392.171 1374.6 388.385 1381.81 382.951 1393.55C377.843 1404.59 372.152 1417.94 367.457 1434.05C357.99 1466.54 352.955 1508.94 362.773 1566.21L400.227 1559.79C391.372 1508.14 396.105 1471.57 403.94 1444.68C407.896 1431.11 412.74 1419.66 417.438 1409.51C421.808 1400.07 427.097 1389.69 430.29 1381.17L394.71 1367.83ZM362.773 1566.21C391.367 1733.01 526.764 1791.31 594.078 1840.68L616.55 1810.03C540.57 1754.32 425.487 1707.14 400.227 1559.79L362.773 1566.21ZM598.428 1807.65C588.6 1811.47 574.066 1818.72 562.479 1828.58C552.148 1837.38 536.841 1854.84 544.301 1877.22L580.351 1865.2C580.349 1865.2 580.369 1865.26 580.381 1865.37C580.393 1865.48 580.389 1865.58 580.384 1865.62C580.373 1865.73 580.379 1865.46 580.728 1864.76C581.525 1863.16 583.446 1860.64 587.106 1857.52C594.433 1851.29 604.833 1845.93 612.201 1843.06L598.428 1807.65ZM544.301 1877.22C547.582 1887.06 551.52 1905.79 569.143 1916.73C577.552 1921.95 587.803 1924.81 599.838 1926.33C611.932 1927.86 627.075 1928.19 646.167 1927.45L644.706 1889.48C626.541 1890.18 613.742 1889.79 604.61 1888.63C595.421 1887.47 591.162 1885.67 589.183 1884.44C586.028 1882.48 585.667 1881.15 580.351 1865.2L544.301 1877.22ZM646.167 1927.45C664.797 1926.74 679.588 1926.01 691.216 1924.92C702.594 1923.86 712.336 1922.36 720.213 1919.57C728.745 1916.54 736.212 1911.59 741.159 1903.27C745.48 1896.01 746.677 1887.96 747.401 1882.17L709.694 1877.45C708.985 1883.12 708.39 1884.03 708.502 1883.84C709.24 1882.6 710.08 1882.84 707.506 1883.75C704.278 1884.9 698.437 1886.09 687.693 1887.09C677.2 1888.06 663.333 1888.76 644.706 1889.48L646.167 1927.45ZM747.401 1882.17C749.008 1869.3 748.993 1838.07 749.337 1810.91C749.516 1796.77 749.782 1783.21 750.343 1772.38C750.624 1766.95 750.967 1762.46 751.372 1759.06C751.846 1755.07 752.227 1754.27 751.92 1755.03L716.638 1740.92C714.899 1745.27 714.115 1750.56 713.638 1754.57C713.091 1759.17 712.695 1764.6 712.394 1770.41C711.791 1782.06 711.519 1796.27 711.34 1810.43C710.967 1839.87 710.952 1867.39 709.694 1877.45L747.401 1882.17ZM751.92 1755.03C751.116 1757.04 750.193 1756.94 751.786 1756.12C753.161 1755.42 755.369 1754.8 757.923 1754.8C760.414 1754.8 762.58 1755.39 764.22 1756.34C765.696 1757.2 767.261 1758.63 768.503 1761.43L803.228 1745.99C793.864 1724.92 774.632 1716.8 757.923 1716.8C749.729 1716.8 741.549 1718.68 734.505 1722.28C727.679 1725.76 720.308 1731.75 716.638 1740.92L751.92 1755.03ZM768.503 1761.43C775.766 1777.77 776.381 1802.09 775.528 1812.32L813.397 1815.47C814.455 1802.77 814.306 1770.92 803.228 1745.99L768.503 1761.43ZM791.339 1795.15C780.934 1796.89 765.331 1801.55 752.69 1810.83C746.218 1815.59 739.725 1822.15 735.636 1830.96C731.388 1840.12 730.301 1850.53 733.042 1861.49L769.907 1852.27C769.209 1849.48 769.626 1847.99 770.107 1846.96C770.747 1845.58 772.207 1843.65 775.192 1841.46C781.466 1836.84 790.796 1833.77 797.586 1832.63L791.339 1795.15ZM733.042 1861.49C733.969 1865.2 734.645 1868.67 735.294 1872.18C735.902 1875.46 736.585 1879.36 737.418 1882.89C739.134 1890.14 742.283 1899.63 751.195 1906.99C759.554 1913.9 770.335 1916.72 781.913 1918.07C793.757 1919.45 809.278 1919.58 829.531 1918.86L828.175 1880.88C808.307 1881.59 795.169 1881.36 786.324 1880.33C777.214 1879.26 775.278 1877.6 775.397 1877.7C776.07 1878.25 775.457 1878.62 774.397 1874.13C773.842 1871.79 773.383 1869.18 772.659 1865.26C771.976 1861.57 771.129 1857.16 769.907 1852.27L733.042 1861.49ZM829.532 1918.86C850.404 1918.11 862.676 1917.82 873.941 1917.42C883.887 1917.08 891.435 1916.7 897.176 1915.75C904.046 1914.6 909.411 1912.47 914.593 1908.48C916.562 1906.97 918.393 1905.26 919.616 1904.13C921.001 1902.86 922.365 1901.61 924.128 1900.14L899.801 1870.94C897.265 1873.06 895.315 1874.85 893.878 1876.17C892.281 1877.65 891.783 1878.08 891.424 1878.36C891.331 1878.43 891.608 1878.22 892.021 1878.05C892.312 1877.93 892.131 1878.06 890.929 1878.26C888.072 1878.74 883.081 1879.08 872.608 1879.45C863.453 1879.77 847.425 1880.19 828.175 1880.88L829.532 1918.86ZM1109.36 1567.87C1124.5 1510.81 1131.66 1465.23 1133.44 1432.07C1134.33 1415.54 1133.91 1401.58 1132.27 1390.59C1131.45 1385.1 1130.26 1379.88 1128.53 1375.26C1126.91 1370.91 1124.26 1365.56 1119.62 1361.35L1094.07 1389.48C1092.35 1387.91 1092.32 1386.9 1092.93 1388.55C1093.45 1389.93 1094.12 1392.38 1094.69 1396.2C1095.82 1403.81 1096.3 1415.03 1095.5 1430.03C1093.89 1459.92 1087.3 1502.85 1072.64 1558.13L1109.36 1567.87ZM1103.88 1394.18C1141.1 1400.06 1200.36 1405.77 1257.93 1403.86C1286.73 1402.9 1315.62 1400.03 1341.37 1394.09C1366.82 1388.22 1390.89 1378.98 1408.52 1364.17L1384.08 1335.07C1373.05 1344.33 1355.68 1351.79 1332.83 1357.06C1310.28 1362.26 1284 1364.97 1256.67 1365.88C1202 1367.69 1145.19 1362.23 1109.81 1356.64L1103.88 1394.18ZM1408.52 1364.17C1447.58 1331.36 1467.83 1291.04 1470.42 1255.71C1471.71 1238.08 1468.61 1220.86 1460.12 1206.81C1451.41 1192.37 1437.47 1182.16 1419.66 1179.02L1413.06 1216.44C1419.61 1217.59 1424.3 1221 1427.59 1226.44C1431.1 1232.27 1433.38 1241.2 1432.52 1252.94C1430.8 1276.36 1416.67 1307.7 1384.08 1335.07L1408.52 1364.17ZM1419.66 1179.02C1392.25 1174.18 1370.01 1186.35 1354.74 1200.61C1339.63 1214.72 1329.35 1232.54 1324.26 1244.98L1359.43 1259.37C1362.94 1250.8 1370.43 1237.95 1380.68 1228.38C1390.78 1218.94 1401.5 1214.4 1413.06 1216.44L1419.66 1179.02ZM1342.45 1233.19C1329.7 1232.78 1308.03 1228.78 1280.83 1221.44C1254.03 1214.21 1223.1 1204.1 1192.34 1192.19C1161.55 1180.28 1131.26 1166.69 1105.64 1152.58C1079.63 1138.26 1059.91 1124.2 1048.93 1111.78L1020.47 1136.96C1035.85 1154.35 1060.19 1170.93 1087.31 1185.86C1114.81 1201.01 1146.73 1215.29 1178.62 1227.63C1210.53 1239.99 1242.74 1250.53 1270.93 1258.13C1298.72 1265.62 1323.9 1270.62 1341.24 1271.17L1342.45 1233.19ZM1033.29 1105.42L469.214 1147.25L472.024 1185.15L1036.1 1143.32L1033.29 1105.42ZM429.95 1382.02L512.45 1190.52L477.55 1175.48L395.05 1366.98L429.95 1382.02ZM1115.34 1358.42L1081.49 1341.5L1064.51 1375.5L1098.35 1392.41L1115.34 1358.42ZM1086.35 1635.2C1095.55 1612.74 1103.47 1590.08 1109.36 1567.87L1072.64 1558.13C1067.25 1578.42 1059.9 1599.5 1051.18 1620.8L1086.35 1635.2ZM1072.35 1646.66C1080.29 1645.13 1088.26 1647 1091.59 1649.88C1092.68 1650.82 1093.62 1652.08 1093.92 1654.81C1094.28 1658 1093.79 1664.03 1089.46 1673.83L1124.23 1689.17C1130.27 1675.47 1133.02 1662.53 1131.69 1650.6C1130.31 1638.21 1124.65 1628.23 1116.44 1621.13C1101.16 1607.92 1079.71 1606.54 1065.17 1609.34L1072.35 1646.66ZM924.128 1900.14C929.11 1895.98 936.999 1886.61 945.725 1875.38C955.003 1863.44 966.603 1847.57 979.369 1828.86C1004.88 1791.46 1035.36 1742.29 1061.41 1689.97L1027.39 1673.03C1002.3 1723.43 972.783 1771.09 947.98 1807.44C935.588 1825.6 924.447 1840.83 915.716 1852.07C911.345 1857.69 907.646 1862.23 904.746 1865.6C903.294 1867.28 902.107 1868.59 901.182 1869.57C900.184 1870.61 899.762 1870.98 899.801 1870.94L924.128 1900.14ZM1061.41 1689.97C1070.35 1672.02 1078.79 1653.64 1086.35 1635.2L1051.18 1620.8C1044.03 1638.25 1035.98 1655.78 1027.39 1673.03L1061.41 1689.97ZM1089.46 1673.83C1086.75 1679.97 1083.91 1682.43 1082.24 1683.43C1080.62 1684.4 1078.79 1684.78 1076.46 1684.45C1070.92 1683.68 1064.37 1678.99 1061.41 1673.03L1027.39 1689.97C1035.46 1706.17 1052.21 1719.43 1071.18 1722.09C1081.1 1723.48 1091.82 1721.95 1101.67 1716.09C1111.47 1710.26 1119.02 1700.97 1124.23 1689.17L1089.46 1673.83Z" fill="#295DA9"/>
<path d="M218.476 495.852C236.575 361.104 326.879 267.528 368.354 240.391C372.162 237.9 375.916 235.388 379.666 232.865C348.559 223.55 280.69 178.705 308.969 122.486C334.42 35.4661 467.33 -6.64273 532.372 35.4659C584.405 69.1527 587.987 130.915 583.274 157.585C621.589 152.518 667.85 149.05 724.668 147.754C820.525 143.668 904.275 155.121 976.35 178.705C975.407 144.058 985.965 69.7107 1035.74 49.4986C1097.95 24.2334 1228.03 29.9952 1253.48 178.705C1256.83 198.286 1253.48 254.431 1172.91 296.539C1299.59 421.539 1344.33 607.781 1315.7 787.805C1264.79 1107.83 888.685 1259.42 569.134 1197.66C249.583 1135.9 133.639 914.131 150.607 838.335C181.639 731.531 246.402 773.445 263.722 740.082C266.637 734.468 263.71 723.102 260.895 717.624C230.867 659.194 201.929 619.049 218.476 495.852Z" fill="#84CDEE"/>
<path d="M976.35 178.705C904.275 155.121 820.525 143.668 724.668 147.754C667.85 149.05 621.589 152.518 583.274 157.585M976.35 178.705C975.407 144.058 985.965 69.7107 1035.74 49.4986C1097.95 24.2334 1228.03 29.9952 1253.48 178.705C1256.83 198.286 1253.48 254.431 1172.91 296.539M976.35 178.705C1055.9 204.734 1121.22 245.539 1172.91 296.539M1172.91 296.539C1299.59 421.539 1344.33 607.781 1315.7 787.805C1264.79 1107.83 888.685 1259.42 569.134 1197.66C249.583 1135.9 133.639 914.131 150.607 838.335C181.639 731.531 246.402 773.445 263.722 740.082C266.637 734.468 263.71 723.102 260.895 717.624C230.867 659.194 201.929 619.049 218.476 495.852C236.575 361.104 326.879 267.528 368.354 240.391C372.162 237.9 375.916 235.388 379.666 232.865M583.274 157.585C587.987 130.915 584.405 69.1527 532.372 35.4659C467.33 -6.64273 334.42 35.4661 308.969 122.486C280.69 178.705 348.559 223.55 379.666 232.865M583.274 157.585C465.836 173.119 423.042 203.688 379.666 232.865" stroke="#295DA9" stroke-width="38"/>
<path d="M439.459 841.503C429.859 733.103 573.126 706.67 645.959 707.003C719.793 707.003 865.759 731.203 858.959 828.003C850.459 949.003 684.459 979.003 659.459 977.003C634.459 975.003 451.459 977.003 439.459 841.503Z" fill="white" stroke="white" stroke-width="30" stroke-linecap="round"/>
<path d="M599.296 1318.33C621.064 1292.58 646.238 1326.18 656.103 1346.21C663.9 1330.51 686.941 1304.4 716.729 1325.54C746.517 1346.69 688.723 1392.66 656.103 1413C628.098 1392.18 577.528 1344.09 599.296 1318.33Z" fill="white" stroke="white" stroke-width="30" stroke-linecap="round"/>
<path d="M798 442.285C801.333 431.785 814.1 412.485 838.5 419.285C862.9 426.085 870.667 437.452 871.5 442.285M426 447.285C426.167 434.618 434.2 410.085 465 413.285C495.8 416.485 500.167 432.952 498.5 440.785M669.5 1231C641.5 1251.33 593.9 1295.1 627.5 1307.5C661.1 1319.9 669.5 1261.67 669.5 1231ZM669.5 1231C682.333 1269.33 712.5 1336.3 730.5 1297.5C748.5 1258.7 697.333 1237 669.5 1231Z" stroke="#295DA8" stroke-width="30" stroke-linecap="round"/>
<path d="M574.525 728.2C590.525 715 606.525 733.7 612.525 744.7C622.692 728.2 647.025 701.8 663.025 728.2C683.025 761.2 643.025 766.7 612.525 766.7C582.025 766.7 554.525 744.7 574.525 728.2Z" fill="#295DA8"/>
<path d="M612.525 766.7C582.025 766.7 554.525 744.7 574.525 728.2C590.525 715 606.525 733.7 612.525 744.7C622.692 728.2 647.025 701.8 663.025 728.2C683.025 761.2 643.025 766.7 612.525 766.7ZM612.525 766.7C612.525 801.7 594.425 866.899 522.025 847.699C449.625 828.499 474.858 790.699 496.525 774.199M612.525 766.7C617.358 806.366 648.925 879.799 736.525 856.199C788.025 842.325 807.358 786.7 788.025 766.7" stroke="#295DA8" stroke-width="30" stroke-linecap="round"/>
<path d="M453.522 737.688C425.125 734.264 367.688 713.722 365.11 658.943C364.543 646.905 366.199 635.501 369.359 624.706C373.814 602.821 388.533 559.167 387.186 564.892C385.492 572.092 388.674 581.238 387.186 586.491C407.092 554.699 408.729 548.49 425.186 539.556C448.746 526.767 447.486 502.947 446.815 501C466.563 523.099 485.182 516.154 492.794 550.593C494.928 560.25 497.366 544.954 504.566 530C509.551 546.061 532.67 567.51 526.427 559.051C548.714 579.526 582.897 636.266 541.33 699.423C525.057 725.685 487.96 735.875 471.446 737.688H453.522Z" fill="#FE4B20"/>
<path d="M453.033 737.547C436.518 734.19 400.791 718.938 389.996 684.781C376.503 642.086 407.518 607.446 438.129 571.397C452.12 554.92 457.663 545.986 459.142 541.491C458.595 540.241 458.036 538.931 457.463 537.562C459.075 537.246 460.252 538.119 459.142 541.491C467.084 559.636 472.532 565.036 481.859 551.046C489.613 575.969 495.705 601.999 512.874 577.076C522.843 587.045 529.697 620.805 531.778 616.308V607.537C532.492 604.952 534.03 600.226 534.473 601.999C534.916 603.771 532.861 612.276 531.778 616.308C543.459 645.241 548.735 709.513 476.394 735.13L453.033 737.547Z" fill="#FFA034"/>
<path d="M419.611 702.746C424.445 723.53 444.047 731.545 453.244 732.955H476.203C505.204 729.531 520.308 675.558 494.53 658.439C473.907 644.745 467.543 619.167 466.939 608.091C464.522 611.649 457.191 621.584 447.202 632.862C434.716 646.96 453.244 668.71 439.549 672.134C428.593 674.873 427.331 660.118 428.07 652.398C423.236 660.52 414.778 681.962 419.611 702.746Z" fill="#FFDD58"/>
<path d="M442.551 714.628C442.068 727.84 453.628 732.754 459.468 733.559H474.573C503.735 714.709 482.427 683.412 468.128 670.12C467.658 673.074 465.953 680.27 462.892 685.426C459.066 691.871 443.155 698.114 442.551 714.628Z" fill="#FCFBCB"/>
<path d="M819.196 738C790.29 734.515 731.821 713.604 729.197 657.842C727.548 622.806 736.257 607.837 754.512 582.717C761.509 562.186 773.661 524.284 774.944 527.778C776.228 531.272 783.766 547.61 785.24 552.75C791.644 543.896 802.561 531.413 804.457 524.145C811.345 497.74 818.762 492.982 818.078 491C835.786 519.151 850.808 528.172 856.672 556.158C862.536 584.144 871.655 587.257 877.104 565.463C900.065 576.739 899.764 564.768 893.408 556.158C916.096 577.001 950.893 634.758 908.579 699.049C892.014 725.782 854.252 736.155 837.441 738H819.196Z" fill="#FE4B20"/>
<path d="M818.698 737.857C801.887 734.441 765.519 718.915 754.531 684.145C740.795 640.684 772.366 605.422 803.527 568.726C828.456 539.369 823.208 540.658 823.208 534.285L815.189 520.336C816.97 520.678 821.067 522.654 823.208 527.823C825.35 532.992 824.1 534.285 823.208 534.285C830.862 540.435 845.431 555.933 842.479 568.726C838.789 584.717 847.856 622.777 873.482 624.623C893.983 626.099 896.738 619.021 898.856 614.443C910.747 643.896 916.118 709.321 842.479 735.398L818.698 737.857Z" fill="#FFA034"/>
<path d="M784.035 700.652C788.955 721.809 808.909 729.969 818.271 731.404H841.642C871.163 727.919 886.539 672.976 860.298 655.551C839.305 641.61 832.827 615.574 832.212 604.299C829.752 607.921 822.289 618.034 812.121 629.515C799.411 643.865 818.271 666.006 804.331 669.491C793.178 672.279 791.894 657.259 792.645 649.401C787.725 657.669 779.115 679.496 784.035 700.652Z" fill="#FFDD58"/>
<path d="M805.042 708.435C804.55 721.883 816.318 726.885 822.263 727.705H837.639C867.324 708.517 845.634 676.658 831.078 663.128C830.6 666.135 828.864 673.46 825.748 678.709C821.853 685.269 805.657 691.624 805.042 708.435Z" fill="#FCFBCB"/>
<path d="M99.2307 1269C67.3989 1265.16 3.01283 1242.13 0.123136 1180.73C-1.6925 1142.15 16.8549 1109.38 36.9573 1081.72C44.6619 1059.11 60.4245 1014.86 61.8379 1018.7C63.2514 1022.55 66.8512 1034.83 68.4744 1040.49C75.5272 1030.74 80.8882 1021.9 82.9762 1013.89C90.5616 984.816 90.9529 973.182 90.2004 971C107.057 987.33 136.796 1028.45 143.253 1059.27C149.711 1090.09 157 1103 163 1079C188.285 1091.42 187.953 1078.23 180.955 1068.75C205.939 1091.71 244.257 1155.31 197.661 1226.11C179.42 1255.54 137.835 1266.97 119.323 1269H99.2307Z" fill="#FE4B20"/>
<path d="M98.6826 1268.84C80.1705 1265.08 40.1211 1247.98 28.0205 1209.69C12.8948 1161.83 47.6614 1123 81.9766 1082.59C109.429 1050.26 103.649 1051.68 103.649 1044.67L94.8182 1029.3C96.7794 1029.68 101.291 1031.86 103.649 1037.55C106.007 1043.24 104.632 1044.67 103.649 1044.67C112.078 1051.44 128.121 1068.51 124.871 1082.59C120.807 1100.2 130.792 1142.11 159.012 1144.15C181.588 1145.77 184.621 1137.98 186.954 1132.94C200.048 1165.37 205.963 1237.42 124.871 1266.13L98.6826 1268.84Z" fill="#FFA034"/>
<path d="M60.5111 1227.87C65.9293 1251.17 87.903 1260.16 98.2126 1261.74H123.949C156.458 1257.9 173.39 1197.4 144.493 1178.21C121.375 1162.85 114.241 1134.18 113.564 1121.77C110.855 1125.75 102.637 1136.89 91.4399 1149.53C77.4429 1165.34 98.2126 1189.72 82.8611 1193.56C70.5799 1196.63 69.1651 1180.09 69.9929 1171.43C64.5748 1180.54 55.0929 1204.57 60.5111 1227.87Z" fill="#FFDD58"/>
<path d="M83.6449 1236.44C83.1031 1251.25 96.0616 1256.76 102.609 1257.66H119.54C152.23 1236.53 128.345 1201.45 112.316 1186.55C111.789 1189.86 109.878 1197.93 106.446 1203.71C102.157 1210.93 84.3222 1217.93 83.6449 1236.44Z" fill="#FCFBCB"/>
<path d="M1441.23 1211C1409.4 1207.16 1345.01 1184.13 1342.12 1122.73C1340.31 1084.15 1358.85 1051.38 1378.96 1023.72C1386.66 1001.11 1402.42 956.856 1403.84 960.704C1405.25 964.551 1408.85 976.834 1410.47 982.494C1417.53 972.744 1422.89 963.898 1424.98 955.894C1432.56 926.816 1432.95 915.182 1432.2 913C1449.06 929.33 1478.8 970.452 1485.25 1001.27C1491.71 1032.09 1499 1045 1505 1021C1530.28 1033.42 1529.95 1020.23 1522.95 1010.75C1547.94 1033.71 1586.26 1097.31 1539.66 1168.11C1521.42 1197.54 1479.84 1208.97 1461.32 1211H1441.23Z" fill="#FE4B20"/>
<path d="M1440.68 1210.84C1422.17 1207.08 1382.12 1189.98 1370.02 1151.69C1354.89 1103.83 1389.66 1065 1423.98 1024.59C1451.43 992.264 1445.65 993.684 1445.65 986.665L1436.82 971.305C1438.78 971.681 1443.29 973.857 1445.65 979.55C1448.01 985.242 1446.63 986.665 1445.65 986.665C1454.08 993.438 1470.12 1010.51 1466.87 1024.59C1462.81 1042.2 1472.79 1084.11 1501.01 1086.15C1523.59 1087.77 1526.62 1079.98 1528.95 1074.94C1542.05 1107.37 1547.96 1179.42 1466.87 1208.13L1440.68 1210.84Z" fill="#FFA034"/>
<path d="M1402.51 1169.87C1407.93 1193.17 1429.9 1202.16 1440.21 1203.74H1465.95C1498.46 1199.9 1515.39 1139.4 1486.49 1120.21C1463.38 1104.85 1456.24 1076.18 1455.56 1063.77C1452.85 1067.75 1444.64 1078.89 1433.44 1091.53C1419.44 1107.34 1440.21 1131.72 1424.86 1135.56C1412.58 1138.63 1411.16 1122.09 1411.99 1113.43C1406.57 1122.54 1397.09 1146.57 1402.51 1169.87Z" fill="#FFDD58"/>
<path d="M1425.64 1178.44C1425.1 1193.25 1438.06 1198.76 1444.61 1199.66H1461.54C1494.23 1178.53 1470.34 1143.45 1454.32 1128.55C1453.79 1131.86 1451.88 1139.93 1448.45 1145.71C1444.16 1152.93 1426.32 1159.93 1425.64 1178.44Z" fill="#FCFBCB"/>
<path d="M415.068 96.5922C349.468 126.992 377 178.332 401 195.999C401 195.999 435.021 177.091 456.5 168.499C477.979 159.908 518 149.499 518 149.499C512 121.166 492.5 60.7095 415.068 96.5922Z" fill="white"/>
<path d="M1147 112.999C1071.5 68.5678 1025 134.833 1026 176.999C1074 198.499 1100 213.499 1139.57 242.593C1177.23 222.593 1222.5 157.431 1147 112.999Z" fill="white"/>
</svg>
