<svg width="100" height="100" viewBox="0 0 100 100" fill="none" xmlns="http://www.w3.org/2000/svg">
<circle cx="50" cy="50" r="50" fill="white"/>
<g clip-path="url(#clip0_19_23)">
<path d="M62.5566 42.3334C62.5566 42.3334 61.5887 33.3154 52.6391 33.0638C43.6864 32.8177 39.0897 39.8287 39.0897 49.8529C39.0897 59.8747 44.1701 67.8921 52.8849 67.8921C61.5911 67.8921 62.5594 57.8706 62.5594 57.8706L79.2503 58.8687C79.2503 58.8687 80.2346 67.9195 73.2456 74.8265C66.2675 81.7283 57.6867 82.8576 51.7091 82.8111C45.7208 82.7647 37.419 82.9041 29.396 74.69C21.3625 66.4593 20.0007 58.4747 20.0007 50.627C20.0007 42.7791 21.521 32.3882 31.0667 24.5132C37.5423 19.1563 44.1185 17.1875 50.6946 17.1875C78.1538 17.1875 79.9995 42.5084 79.9995 42.5084L62.5566 42.3334Z" fill="black"/>
</g>
<defs>
<clipPath id="clip0_19_23">
<rect width="65.625" height="65.625" fill="white" transform="translate(17.1875 17.1875)"/>
</clipPath>
</defs>
</svg>
