<svg width="100" height="100" viewBox="0 0 100 100" fill="none" xmlns="http://www.w3.org/2000/svg">
<path d="M100 50C100 77.6142 77.6142 100 50 100C22.3858 100 0 77.6142 0 50C0 22.3858 22.3858 0 50 0C77.6142 0 100 22.3858 100 50Z" fill="white"/>
<g clip-path="url(#clip0_19_25)">
<path d="M79.7744 32.8125C79.296 31.9818 78.6343 31.2571 77.9067 30.836L52.6525 16.2552C51.1944 15.413 48.8139 15.413 47.3587 16.2552L22.0988 30.836C20.6436 31.6753 19.4548 33.7378 19.4548 35.4193V64.5808C19.4548 65.4229 19.7528 66.3568 20.2311 67.1875C20.7095 68.0183 21.3712 68.743 22.0988 69.1641L47.353 83.7448C48.8082 84.5841 51.1915 84.5841 52.6468 83.7448L77.9009 69.1641C78.6285 68.743 79.2902 68.0183 79.7686 67.1875C80.247 66.3568 80.5421 65.4229 80.5421 64.5808V35.4193C80.5507 34.5771 80.2556 33.6433 79.7744 32.8125ZM49.9999 70.3672C38.7707 70.3672 29.6356 61.2292 29.6356 50C29.6356 38.7709 38.7736 29.6328 50.0027 29.6328C53.5753 29.6396 57.0837 30.583 60.1779 32.3689C63.2722 34.1547 65.8441 36.7206 67.6371 39.8107L58.8257 44.9097C57.9298 43.362 56.6435 42.0766 55.0952 41.1818C53.5469 40.287 51.791 39.8143 50.0027 39.8107C47.3011 39.813 44.7107 40.8872 42.8003 42.7976C40.8899 44.708 39.8157 47.2983 39.8134 50C39.8172 52.7002 40.8917 55.2887 42.8013 57.1977C44.7109 59.1068 47.2997 60.1806 49.9999 60.1836C51.7874 60.1798 53.5426 59.7075 55.0907 58.8138C56.6388 57.9202 57.9256 56.6364 58.8228 55.0904L67.64 60.1893C65.846 63.2799 63.2731 65.846 60.1779 67.6319C57.0827 69.4177 53.5733 70.3608 49.9999 70.3672ZM70.3671 51.1315H68.104V53.3946H65.841V51.1315H63.578V48.8685H65.841V46.6055H68.104V48.8685H70.3671V51.1315ZM78.852 51.1315H76.5889V53.3946H74.3259V51.1315H72.0629V48.8685H74.3259V46.6055H76.5889V48.8685H78.852V51.1315Z" fill="black"/>
</g>
<defs>
<clipPath id="clip0_19_25">
<rect width="68.75" height="68.75" fill="white" transform="translate(15.625 15.625)"/>
</clipPath>
</defs>
</svg>
