<svg width="158" height="158" viewBox="0 0 158 158" fill="none" xmlns="http://www.w3.org/2000/svg">
<circle cx="79" cy="79" r="79" fill="white"/>
<g clip-path="url(#clip0_14_60)">
<path d="M110.882 49.7509C104.917 47.013 98.6227 45.0606 92.1556 43.9426C92.0969 43.9317 92.0362 43.9395 91.9822 43.965C91.9281 43.9906 91.8835 44.0325 91.8547 44.0848C91.0459 45.5235 90.15 47.3999 89.5229 48.8746C82.4515 47.8158 75.4162 47.8158 68.4902 48.8746C67.863 47.3669 66.9346 45.5235 66.1223 44.0848C66.0922 44.0337 66.0474 43.9928 65.9937 43.9675C65.9401 43.9422 65.88 43.9337 65.8214 43.943C59.3537 45.0584 53.0587 47.0106 47.0948 49.7505C47.0438 49.7723 47.0008 49.8094 46.9717 49.8567C35.0447 67.6756 31.7772 85.0563 33.3803 102.222C33.3848 102.264 33.3977 102.304 33.4183 102.341C33.4388 102.378 33.4666 102.411 33.4999 102.437C41.3689 108.216 48.9915 111.724 56.4727 114.049C56.5308 114.067 56.5929 114.066 56.6506 114.047C56.7083 114.028 56.7588 113.992 56.7954 113.944C58.5649 111.527 60.1423 108.979 61.4951 106.299C61.5137 106.262 61.5243 106.222 61.5262 106.181C61.5282 106.14 61.5214 106.099 61.5063 106.061C61.4913 106.022 61.4683 105.988 61.4388 105.959C61.4094 105.93 61.3742 105.908 61.3356 105.894C58.8332 104.945 56.4508 103.787 54.1589 102.473C54.1171 102.449 54.082 102.414 54.0566 102.373C54.0313 102.332 54.0166 102.285 54.0137 102.236C54.0108 102.188 54.0199 102.14 54.0401 102.096C54.0604 102.052 54.0911 102.013 54.1297 101.984C54.612 101.622 55.0946 101.247 55.555 100.867C55.5959 100.833 55.6454 100.811 55.698 100.804C55.7505 100.797 55.804 100.805 55.8524 100.827C70.909 107.701 87.2091 107.701 102.088 100.827C102.136 100.804 102.19 100.795 102.244 100.801C102.297 100.808 102.347 100.829 102.389 100.863C102.849 101.243 103.332 101.622 103.818 101.984C103.856 102.013 103.887 102.051 103.908 102.095C103.928 102.139 103.938 102.187 103.935 102.235C103.933 102.284 103.919 102.33 103.894 102.372C103.869 102.413 103.834 102.448 103.792 102.473C101.5 103.812 99.0979 104.955 96.6126 105.89C96.5741 105.905 96.539 105.928 96.5098 105.957C96.4806 105.986 96.4579 106.021 96.4432 106.06C96.4284 106.098 96.422 106.14 96.4243 106.181C96.4267 106.222 96.4377 106.262 96.4566 106.299C97.8382 108.975 99.4156 111.523 101.152 113.94C101.188 113.99 101.238 114.027 101.296 114.047C101.354 114.066 101.417 114.067 101.475 114.049C108.992 111.724 116.615 108.215 124.484 102.437C124.518 102.412 124.546 102.38 124.567 102.344C124.588 102.307 124.6 102.267 124.604 102.225C126.522 82.3798 121.391 65.1417 111.001 49.8601C110.976 49.8105 110.934 49.772 110.882 49.7509ZM63.7433 91.7696C59.2104 91.7696 55.4752 87.6077 55.4752 82.4968C55.4752 77.3862 59.138 73.2243 63.7437 73.2243C68.3851 73.2243 72.0839 77.4226 72.0115 82.4971C72.0115 87.6077 68.3487 91.7696 63.7433 91.7696ZM94.3134 91.7696C89.7805 91.7696 86.0453 87.6077 86.0453 82.4968C86.0453 77.3862 89.7077 73.2243 94.3134 73.2243C98.9548 73.2243 102.654 77.4226 102.581 82.4971C102.581 87.6077 98.9548 91.7696 94.3134 91.7696Z" fill="black"/>
</g>
<defs>
<clipPath id="clip0_14_60">
<rect width="92" height="92" fill="white" transform="translate(33 33)"/>
</clipPath>
</defs>
</svg>
