<svg width="158" height="158" viewBox="0 0 158 158" fill="none" xmlns="http://www.w3.org/2000/svg">
<circle cx="79" cy="79" r="79" fill="white"/>
<g clip-path="url(#clip0_14_49)">
<path d="M122 55.5542V105.395C122 108.634 119.377 111.257 116.138 111.257H102.453V78.0325L79 95.6266L55.5471 78.0325V111.261H41.8623C41.0922 111.261 40.3296 111.109 39.6181 110.814C38.9066 110.519 38.2602 110.087 37.7158 109.542C37.1714 108.998 36.7396 108.351 36.4452 107.639C36.1508 106.928 35.9995 106.165 36 105.395V55.5542C36 48.3051 44.2739 44.1664 50.0718 48.5166L55.5471 52.6266L79 70.2136L102.453 52.6195L107.928 48.5166C113.722 44.17 122 48.3051 122 55.5542Z" fill="black"/>
</g>
<defs>
<clipPath id="clip0_14_49">
<rect width="86" height="86" fill="white" transform="translate(36 36)"/>
</clipPath>
</defs>
</svg>
