<svg width="158" height="158" viewBox="0 0 158 158" fill="none" xmlns="http://www.w3.org/2000/svg">
<circle cx="79" cy="79" r="79" fill="white"/>
<path d="M79 32.188C52.48 32.188 31 53.68 31 80.188C31 101.4 44.752 119.388 63.82 125.728C66.22 126.18 67.1 124.696 67.1 123.42C67.1 122.28 67.06 119.26 67.04 115.26C53.688 118.156 50.872 108.82 50.872 108.82C48.688 103.28 45.532 101.8 45.532 101.8C41.184 98.824 45.868 98.884 45.868 98.884C50.688 99.22 53.22 103.828 53.22 103.828C57.5 111.168 64.456 109.048 67.2 107.82C67.632 104.716 68.868 102.6 70.24 101.4C59.58 100.2 48.376 96.072 48.376 77.68C48.376 72.44 50.236 68.16 53.316 64.8C52.776 63.588 51.156 58.708 53.736 52.096C53.736 52.096 57.756 50.808 66.936 57.016C70.776 55.948 74.856 55.42 78.936 55.396C83.016 55.42 87.096 55.948 90.936 57.016C100.056 50.808 104.076 52.096 104.076 52.096C106.656 58.708 105.036 63.588 104.556 64.8C107.616 68.16 109.476 72.44 109.476 77.68C109.476 96.12 98.256 100.18 87.576 101.36C89.256 102.8 90.816 105.744 90.816 110.24C90.816 116.664 90.756 121.824 90.756 123.384C90.756 124.644 91.596 126.144 94.056 125.664C113.26 119.368 127 101.368 127 80.188C127 53.68 105.508 32.188 79 32.188Z" fill="black"/>
</svg>
