<svg width="158" height="158" viewBox="0 0 158 158" fill="none" xmlns="http://www.w3.org/2000/svg">
<circle cx="79" cy="79" r="79" fill="white"/>
<g clip-path="url(#clip0_54_14)">
<path d="M79 29C65.4167 29 63.7208 29.0625 58.3875 29.3C53.0625 29.55 49.4375 30.3875 46.25 31.625C42.9625 32.9 40.1708 34.6125 37.3917 37.3917C34.6125 40.1708 32.8958 42.9583 31.625 46.25C30.3875 49.4375 29.5458 53.0625 29.3 58.3875C29.05 63.7208 29 65.4167 29 79C29 92.5833 29.0625 94.2792 29.3 99.6125C29.55 104.933 30.3875 108.562 31.625 111.75C32.9 115.033 34.6125 117.829 37.3917 120.608C40.1708 123.383 42.9583 125.104 46.25 126.375C49.4417 127.608 53.0667 128.454 58.3875 128.7C63.7208 128.95 65.4167 129 79 129C92.5833 129 94.2792 128.937 99.6125 128.7C104.933 128.45 108.562 127.608 111.75 126.375C115.033 125.1 117.829 123.383 120.608 120.608C123.383 117.829 125.104 115.046 126.375 111.75C127.608 108.562 128.454 104.933 128.7 99.6125C128.95 94.2792 129 92.5833 129 79C129 65.4167 128.937 63.7208 128.7 58.3875C128.45 53.0667 127.608 49.4333 126.375 46.25C125.1 42.9625 123.383 40.1708 120.608 37.3917C117.829 34.6125 115.046 32.8958 111.75 31.625C108.562 30.3875 104.933 29.5458 99.6125 29.3C94.2792 29.05 92.5833 29 79 29ZM79 38C92.3458 38 93.9375 38.0667 99.2083 38.2958C104.083 38.525 106.729 39.3333 108.487 40.025C110.829 40.9292 112.487 42.0125 114.246 43.7583C115.992 45.5083 117.075 47.1708 117.979 49.5125C118.662 51.2708 119.479 53.9167 119.7 58.7917C119.937 64.0667 119.992 65.65 119.992 79C119.992 92.35 119.929 93.9375 119.683 99.2083C119.429 104.083 118.617 106.729 117.929 108.487C116.996 110.829 115.933 112.487 114.183 114.246C112.438 115.992 110.75 117.075 108.433 117.979C106.683 118.662 103.996 119.479 99.1208 119.7C93.8125 119.937 92.25 119.992 78.875 119.992C65.4958 119.992 63.9333 119.929 58.6292 119.683C53.75 119.429 51.0625 118.617 49.3125 117.929C46.9417 116.996 45.3125 115.933 43.5667 114.183C41.8125 112.438 40.6917 110.75 39.8167 108.433C39.1292 106.683 38.3208 103.996 38.0667 99.1208C37.8792 93.8708 37.8125 92.25 37.8125 78.9375C37.8125 65.6208 37.8792 63.9958 38.0667 58.6833C38.3208 53.8083 39.1292 51.125 39.8167 49.375C40.6917 47 41.8125 45.375 43.5667 43.6208C45.3125 41.875 46.9417 40.75 49.3125 39.8792C51.0625 39.1875 53.6917 38.375 58.5667 38.125C63.8792 37.9375 65.4417 37.875 78.8125 37.875L79 38ZM79 53.325C64.8125 53.325 53.325 64.825 53.325 79C53.325 93.1875 64.825 104.675 79 104.675C93.1875 104.675 104.675 93.175 104.675 79C104.675 64.8125 93.175 53.325 79 53.325ZM79 95.6667C69.7917 95.6667 62.3333 88.2083 62.3333 79C62.3333 69.7917 69.7917 62.3333 79 62.3333C88.2083 62.3333 95.6667 69.7917 95.6667 79C95.6667 88.2083 88.2083 95.6667 79 95.6667ZM111.692 52.3125C111.692 55.625 109 58.3125 105.692 58.3125C102.379 58.3125 99.6917 55.6208 99.6917 52.3125C99.6917 49.0042 102.383 46.3167 105.692 46.3167C108.996 46.3125 111.692 49.0042 111.692 52.3125Z" fill="black"/>
</g>
<defs>
<clipPath id="clip0_54_14">
<rect width="100" height="100" fill="white" transform="translate(29 29)"/>
</clipPath>
</defs>
</svg>
