<svg width="100" height="100" viewBox="0 0 100 100" fill="none" xmlns="http://www.w3.org/2000/svg">
<circle cx="50" cy="50" r="50" fill="white"/>
<g clip-path="url(#clip0_22_6)">
<path d="M54.582 14.0625C58.5352 23.2097 40.4092 28.8586 38.7246 36.4785C37.1804 43.4807 49.4946 51.6172 49.5059 51.6172C47.636 48.7197 46.2603 46.3332 44.3848 41.8242C41.2122 34.1987 63.7068 27.2976 54.582 14.0625ZM66.6211 26.7305C66.6211 26.7305 50.7188 27.7524 49.9102 37.916C49.5508 42.4419 54.0935 44.8227 54.2227 48.1133C54.3293 50.803 51.5273 53.0547 51.5273 53.0547C51.5273 53.0547 56.626 52.0832 58.2207 47.9785C59.9895 43.4246 54.7729 40.3474 55.3008 36.7031C55.8062 33.2161 66.6211 26.7305 66.6211 26.7305ZM41.6445 50.2246C41.6445 50.2246 27.0898 50.0168 27.0898 54.1328C27.0898 58.4341 46.1423 58.7541 59.748 56.1094C59.748 56.1094 63.3643 53.6218 64.3301 52.6953C55.4131 54.5146 35.0859 54.7168 35.0859 53.1445C35.0859 51.6958 41.6445 50.2246 41.6445 50.2246ZM69.6309 50.2246C68.2046 50.3369 66.666 50.8872 65.2734 51.8867C68.5527 51.1792 71.3379 53.2119 71.3379 55.5254C71.3379 60.7363 63.791 65.6328 63.791 65.6328C63.791 65.6328 75.4707 64.3076 75.4707 55.75C75.4707 51.8643 72.7698 49.9775 69.6309 50.2246ZM38.1406 58.2207C35.9058 58.2207 32.5703 59.9726 32.5703 61.6348C32.5703 64.9758 49.3711 67.5476 61.8145 62.668L57.502 60.0176C49.0679 62.7185 33.5361 61.8369 38.1406 58.2207ZM40.207 65.7226C37.1467 65.7226 35.1309 67.5701 35.1309 68.957C35.1309 73.2471 53.4084 73.6794 60.6465 69.3164L56.0645 66.3965C50.657 68.6819 37.085 69.03 40.207 65.7226ZM30.0098 69.5859C25.0234 69.4849 21.7891 71.7253 21.7891 73.584C21.7891 83.4668 72.8203 83.012 72.8203 72.9101C72.8203 71.2312 70.8831 70.417 70.1699 70.0351C74.342 79.6933 28.3926 78.9241 28.3926 73.2246C28.3926 71.9275 31.7729 70.6865 34.9062 71.293L32.2559 69.7656C31.4753 69.6477 30.7229 69.6028 30.0098 69.5859ZM78.2109 76.2344C70.4507 83.5903 50.7861 86.2576 30.998 81.7148C50.7805 89.812 78.1155 85.2693 78.2109 76.2344Z" fill="black"/>
</g>
<defs>
<clipPath id="clip0_22_6">
<rect width="71.875" height="71.875" fill="white" transform="translate(14.0625 14.0625)"/>
</clipPath>
</defs>
</svg>
