<svg width="100" height="100" viewBox="0 0 100 100" fill="none" xmlns="http://www.w3.org/2000/svg">
<circle cx="50" cy="50" r="50" fill="white"/>
<path d="M18.75 24.75C18.75 21.4363 21.4363 18.75 24.75 18.75H75.25C78.5637 18.75 81.25 21.4363 81.25 24.75V75.25C81.25 78.5637 78.5637 81.25 75.25 81.25H24.75C21.4363 81.25 18.75 78.5637 18.75 75.25V24.75ZM76.0714 66.2581C76.0855 66.2787 76.1174 66.2657 76.1132 66.2411C75.6293 63.4346 73.7515 61.0695 68.3099 58.862C66.5684 58.0457 64.6506 57.4551 63.8399 56.2698C63.6777 56.0326 63.5875 55.7549 63.5239 55.4747C63.3863 54.8682 63.3837 54.476 63.5104 54.0573C63.901 52.375 65.8932 51.8698 67.4557 52.3385C67.6681 52.4039 67.877 52.4897 68.08 52.596C69.4299 53.3028 71.4103 53.7485 72.6942 52.9279V52.9279C73.8735 52.1742 74.0395 50.7027 73.0417 49.7214V49.7214C71.401 47.8854 69.2161 46.9479 65.6615 47.0286L63.8255 47.2604C62.0651 47.6901 60.388 48.6276 59.3724 49.8776C56.4036 53.2396 57.2604 59.099 60.8542 61.5208C64.4089 64.1771 69.6068 64.7604 70.2708 67.263C70.8958 70.3099 68.0052 71.2865 65.151 70.9349C64.0068 70.6809 63.1393 70.2542 62.3795 69.6059C61.1771 68.5798 59.5126 68.0692 58.1419 68.8564V68.8564C56.8178 69.6168 56.3083 71.2543 57.3224 72.3958C57.5084 72.6051 57.7081 72.8283 57.9245 73.0807C62.4557 77.6537 73.7839 77.4193 75.8177 70.4661C75.8921 70.2352 76.4268 68.6766 76.0287 66.2762C76.0246 66.2514 76.0572 66.2374 76.0714 66.2581V66.2581ZM52.7266 47.6224C52.7322 47.5436 52.6698 47.4766 52.5908 47.4766H49.7055C48.1466 47.4766 46.8829 48.7403 46.8807 50.2992C46.8749 54.3968 46.8594 58.4824 46.8594 62.5938C46.8594 65.8021 47.0234 68.7474 46.5 69.6536C45.7536 71.212 43.9858 71.244 42.8753 71.0191C42.5697 70.9572 42.2767 70.8415 42.013 70.6751C41.2408 70.1881 40.7813 69.5468 40.2604 68.6771V68.6771C40.0544 68.3337 39.7492 68.2779 39.4083 68.4881L38.7945 68.8664C36.7399 70.133 35.8742 72.9175 37.7513 74.4346C38.0284 74.6585 38.3197 74.8634 38.625 75.0469C40.8516 76.375 43.8438 76.8047 46.9766 76.1016C49.0156 75.513 50.7734 74.3021 51.6927 72.4271C53.0208 70.0052 52.7396 67.0365 52.7266 63.7135C52.7578 58.3646 52.7266 53.013 52.7266 47.6224V47.6224Z" fill="black"/>
</svg>
