<svg width="100" height="100" viewBox="0 0 100 100" fill="none" xmlns="http://www.w3.org/2000/svg">
<circle cx="50" cy="50" r="50" fill="white"/>
<g clip-path="url(#clip0_59_12)">
<path d="M55.8594 19.2188L58.2031 19.7396L60.1042 20.4167L61.6406 21.1979L62.8125 22.0313L63.6979 22.9167L64.349 23.8021L64.7656 24.6615L65.026 25.4427L65.1302 26.1198L65.1823 26.6406L65.1562 26.9792V40.8854L65.026 42.526L64.6875 43.9583L64.1406 45.1563L63.4635 46.1458L62.6823 46.9531L61.8229 47.6042L60.9115 48.099L60 48.4635L59.1406 48.724L58.3594 48.9063L57.6823 49.0104L57.1354 49.0625H41.5885L39.7917 49.1927L38.2552 49.5573L36.9531 50.1302L35.8854 50.8333L35.026 51.6667L34.3229 52.5781L33.8021 53.5156L33.4115 54.4792L33.151 55.3906L32.9687 56.224L32.8646 56.9271L32.8125 57.474V65.4427H27.0052L26.4583 65.3646L25.7292 65.1823L24.8958 64.8698L23.9844 64.401L23.0469 63.724L22.1094 62.7865L21.1979 61.5885L20.3646 60.0521L19.6354 58.151L19.0885 55.8594L18.724 53.125L18.5938 49.9219L18.75 46.7448L19.1667 44.0365L19.7917 41.7708L20.625 39.9219L21.5625 38.4375L22.6042 37.2917L23.6979 36.4323L24.7917 35.8073L25.8333 35.3906L26.7708 35.1302L27.6042 35L28.2292 34.974H28.6458L28.8021 35H50.0521V32.8385H34.8437L34.8177 25.6771L34.7656 24.7135L34.8958 23.8281L35.1823 23.0208L35.625 22.2917L36.276 21.6146L37.0833 21.0156L38.0729 20.4948L39.2187 20.026L40.5469 19.6354L42.0573 19.3229L43.724 19.0625L45.5729 18.9063L47.5781 18.8021L49.7656 18.75L53.0729 18.8802L55.8594 19.2188ZM39.4531 24.375L38.8542 25.2344L38.6458 26.3021L38.8542 27.3698L39.4531 28.2552L40.3125 28.8281L41.3802 29.0625L42.4479 28.8281L43.3073 28.2552L43.9062 27.3698L44.1146 26.3021L43.9062 25.2344L43.3073 24.375L42.4479 23.8021L41.3802 23.5677L40.3125 23.8021L39.4531 24.375ZM73.5417 34.6615L74.2708 34.8177L75.1042 35.1302L76.0156 35.599L76.9531 36.3021L77.8906 37.2135L78.8021 38.4375L79.6354 39.974L80.3646 41.875L80.9115 44.1667L81.276 46.875L81.4062 50.0781L81.25 53.2813L80.8333 55.9896L80.2083 58.2292L79.375 60.0781L78.4375 61.5625L77.3958 62.7344L76.3021 63.5937L75.2083 64.2187L74.1667 64.6354L73.2292 64.8698L72.3958 65L71.7708 65.0521L71.3542 65.026H49.9479V67.1615H65.1562L65.1823 74.349L65.2344 75.2865L65.1042 76.1719L64.8177 76.9792L64.375 77.7344L63.724 78.3854L62.9167 79.0104L61.9271 79.5313L60.7812 79.974L59.4531 80.3646L57.9427 80.7031L56.276 80.9375L54.4271 81.1198L52.4219 81.224L50.2344 81.25L46.9271 81.1458L44.1406 80.7813L41.7969 80.2604L39.8958 79.6094L38.3594 78.8281L37.1875 77.9688L36.3021 77.0833L35.651 76.1979L35.2344 75.3385L34.974 74.5573L34.8698 73.9063L34.8177 73.3854L34.8437 73.0469V59.1406L34.974 57.474L35.3125 56.0677L35.8594 54.8698L36.5365 53.8802L37.3177 53.0469L38.1771 52.4219L39.0885 51.901L40 51.5365L40.8594 51.276L41.6406 51.1198L42.3177 51.0156L42.8646 50.9635L43.2031 50.9375H58.4115L60.2083 50.8073L61.7448 50.4427L63.0469 49.8958L64.1146 49.1667L64.974 48.3333L65.6771 47.4219L66.1979 46.4844L66.5885 45.5469L66.849 44.6354L67.0312 43.8021L67.1354 43.0729L67.1875 42.526V34.5573H72.6302L72.9948 34.5833L73.5417 34.6615ZM56.6927 71.7708L56.0937 72.6302L55.8854 73.6979L56.0937 74.7656L56.6927 75.625L57.5521 76.224L58.6198 76.4323L59.6875 76.224L60.5469 75.625L61.1458 74.7656L61.3542 73.6979L61.1458 72.6302L60.5469 71.7708L59.6875 71.1719L58.6198 70.9635L57.5521 71.1719L56.6927 71.7708Z" fill="black"/>
</g>
<defs>
<clipPath id="clip0_59_12">
<rect width="62.5" height="62.5" fill="white" transform="translate(18.75 18.75)"/>
</clipPath>
</defs>
</svg>
