<svg width="100" height="100" viewBox="0 0 100 100" fill="none" xmlns="http://www.w3.org/2000/svg">
<circle cx="50" cy="50" r="50" fill="white"/>
<g clip-path="url(#clip0_59_13)">
<path d="M75.6606 22.437C74.7928 24.5186 73.6696 26.4843 72.3169 28.2888C69.4201 25.2935 65.9521 22.9095 62.118 21.2779C58.2838 19.6463 54.1614 18.8002 49.9945 18.7897C45.8277 18.7792 41.701 19.6044 37.8586 21.2166C34.0163 22.8288 30.5363 25.1951 27.6244 28.1758C24.7126 31.1564 22.4281 34.6907 20.906 38.5696C19.384 42.4486 18.6553 46.5934 18.7631 50.7588C18.8709 54.9243 19.813 59.0259 21.5336 62.8209C23.2543 66.6159 25.7185 70.0273 28.7807 72.8534L29.9382 73.8823C34.3308 77.5869 39.6631 80.0034 45.3445 80.8643C51.0259 81.7251 56.8347 80.9967 62.1276 78.7597C67.4205 76.5227 71.991 72.8644 75.333 68.1899C78.6749 63.5155 80.6578 58.0072 81.0622 52.2752C81.9624 44.4299 79.5833 34.3982 75.6606 22.437ZM33.2825 73.1107C32.9518 73.517 32.5082 73.8161 32.0076 73.9704C31.5069 74.1246 30.9718 74.127 30.4699 73.9772C29.9679 73.8274 29.5216 73.5322 29.1874 73.1288C28.8531 72.7255 28.646 72.2321 28.592 71.711C28.5381 71.19 28.6399 70.6646 28.8845 70.2014C29.129 69.7381 29.5054 69.3578 29.9661 69.1084C30.4268 68.859 30.951 68.7518 31.4726 68.8002C31.9942 68.8487 32.4897 69.0507 32.8965 69.3807C33.4299 69.8324 33.7679 70.4728 33.8398 71.168C33.9118 71.8632 33.7121 72.5593 33.2825 73.1107ZM75.4676 63.7862C67.8153 74.0109 51.3528 70.5383 40.8708 71.0528C40.8708 71.0528 39.0059 71.1815 37.1408 71.4385C37.1408 71.4385 37.8484 71.1172 38.7486 70.7956C46.1439 68.2234 49.6163 67.7088 54.1179 65.3937C62.5421 61.0851 70.9663 51.6323 72.6382 41.8575C69.4228 51.2463 59.6484 59.3489 50.7739 62.6286C44.6648 64.8794 33.6684 67.0659 33.6684 67.0659L33.2182 66.8086C25.7585 63.1429 25.5015 46.9377 39.1343 41.7289C45.115 39.4138 50.7739 40.7002 57.2689 39.1567C64.1497 37.5489 72.1239 32.4044 75.3393 25.6523C78.9403 36.52 83.3132 53.3685 75.4676 63.7862Z" fill="black"/>
</g>
<defs>
<clipPath id="clip0_59_13">
<rect width="62.5" height="62.5" fill="white" transform="translate(18.75 18.75)"/>
</clipPath>
</defs>
</svg>
