<svg width="100" height="100" viewBox="0 0 100 100" fill="none" xmlns="http://www.w3.org/2000/svg">
<circle cx="50" cy="50" r="50" fill="white"/>
<g clip-path="url(#clip0_14_70)">
<path d="M21.6797 18.75C20.0573 18.75 18.75 20.0573 18.75 21.6797V78.3203C18.75 79.9427 20.0573 81.25 21.6797 81.25H78.3203C79.9427 81.25 81.25 79.9427 81.25 78.3203V21.6797C81.25 20.0573 79.9427 18.75 78.3203 18.75H21.6797ZM66.8958 44.1406C68.4896 44.1406 69.901 44.237 71.1328 44.4297C72.2946 44.6038 73.4347 44.9006 74.5338 45.3151V51.7161C74.0062 51.3512 73.4456 51.0365 72.8594 50.776C72.2548 50.504 71.6306 50.2777 70.9922 50.099C69.7828 49.762 68.5341 49.5868 67.2786 49.5781C66.4974 49.5781 65.7865 49.651 65.1458 49.8021C64.5749 49.9242 64.0271 50.137 63.5234 50.4323C63.0807 50.7031 62.7422 51.0286 62.5 51.4062C62.2564 51.7868 62.1297 52.2305 62.1354 52.6823C62.1354 53.1927 62.2734 53.6536 62.5417 54.0599C62.8125 54.4661 63.1979 54.8516 63.6953 55.2161C64.1927 55.5807 64.7969 55.9349 65.5078 56.2839C66.2187 56.6354 67.0234 56.9974 67.9193 57.3672C69.1432 57.8802 70.2422 58.4271 71.2161 59.0026C72.1901 59.5807 73.026 60.2344 73.724 60.9635C74.4219 61.6901 74.9531 62.5208 75.3229 63.4557C75.6927 64.3906 75.8802 65.4766 75.8802 66.7187C75.8802 68.4297 75.5547 69.8698 74.9089 71.0313C74.2778 72.1767 73.3723 73.1476 72.2734 73.8568C71.089 74.6078 69.7763 75.134 68.401 75.4089C66.9271 75.7214 65.3724 75.8776 63.7396 75.8776C62.1325 75.8847 60.5284 75.7417 58.9479 75.4505C57.5805 75.214 56.2544 74.7816 55.0104 74.1667V67.3177C57.364 69.3206 60.3497 70.4274 63.4401 70.4427C64.3073 70.4427 65.0651 70.3646 65.7109 70.2083C66.3594 70.0521 66.8984 69.8333 67.3333 69.5573C67.7656 69.276 68.0885 68.9479 68.3047 68.5677C68.5436 68.125 68.6523 67.6238 68.6182 67.1219C68.5841 66.62 68.4086 66.1381 68.112 65.7318C67.7251 65.2198 67.2518 64.7791 66.7135 64.4297C66.046 63.9872 65.3431 63.6005 64.612 63.2734C63.7454 62.8777 62.8711 62.4991 61.9896 62.138C59.599 61.1406 57.8177 59.9193 56.6432 58.4792C55.4714 57.0391 54.8828 55.2969 54.8828 53.2578C54.8828 51.6589 55.2031 50.2865 55.8437 49.138C56.4844 47.9896 57.3542 47.0443 58.4583 46.3021C59.6262 45.5316 60.9228 44.9769 62.2865 44.6641C63.7968 44.308 65.3441 44.1323 66.8958 44.1406ZM27.5391 44.6302H52.4427V50.2708H43.5052V75.3906H36.4297V50.2708H27.5391V44.6302Z" fill="black"/>
</g>
<defs>
<clipPath id="clip0_14_70">
<rect x="18.75" y="18.75" width="62.5" height="62.5" rx="8" fill="white"/>
</clipPath>
</defs>
</svg>
